<svg xmlns="http://www.w3.org/2000/svg" viewBox="0 0 512 512" width="512" height="512">
  <defs>
    <linearGradient id="bg" x1="0" y1="0" x2="0" y2="1">
      <stop offset="0" stop-color="#241a52"/>
      <stop offset="0.6" stop-color="#6c4f8e"/>
      <stop offset="1" stop-color="#ef8a2c"/>
    </linearGradient>
    <radialGradient id="halo" cx="0.5" cy="0.44" r="0.5">
      <stop offset="0" stop-color="#fff3b0" stop-opacity="0.65"/>
      <stop offset="1" stop-color="#fff3b0" stop-opacity="0"/>
    </radialGradient>
  </defs>
  <rect width="512" height="512" fill="url(#bg)"/>
  <circle cx="256" cy="225" r="190" fill="url(#halo)"/>
  <!-- bow -->
  <path d="M186 368 A150 150 0 0 1 186 104" fill="none" stroke="#ffd14a" stroke-width="22" stroke-linecap="round"/>
  <path d="M194 350 A132 132 0 0 1 194 122" fill="none" stroke="#fff3b0" stroke-width="7" stroke-linecap="round"/>
  <!-- string -->
  <polyline points="186,368 238,236 186,104" fill="none" stroke="#fffae6" stroke-width="6"/>
  <!-- arrow -->
  <line x1="220" y1="236" x2="430" y2="236" stroke="#7a3d0c" stroke-width="13" stroke-linecap="round"/>
  <line x1="220" y1="236" x2="430" y2="236" stroke="#ffd14a" stroke-width="5" stroke-linecap="round"/>
  <polygon points="452,236 420,219 420,253" fill="#e4ecf5"/>
  <polygon points="220,236 196,222 210,236" fill="#e23b3b"/>
  <polygon points="220,236 196,250 210,236" fill="#e23b3b"/>
  <!-- sparkles -->
  <path d="M392 120 l6 14 14 6 -14 6 -6 14 -6 -14 -14 -6 14 -6 z" fill="#fff3b0"/>
  <path d="M150 360 l4 10 10 4 -10 4 -4 10 -4 -10 -10 -4 10 -4 z" fill="#fff3b0"/>
</svg>
